<?xml version="1.0" encoding="UTF-8"?>
<svg id="Calque_1" xmlns="http://www.w3.org/2000/svg" version="1.1" viewBox="0 0 1920 1080">
  <!-- Generator: Adobe Illustrator 29.6.0, SVG Export Plug-In . SVG Version: 2.1.1 Build 207)  -->
  <defs>
    <style>
      .st0 {
        fill: #fff;
      }
    </style>
  </defs>
  <path class="st0" d="M-2754.9,927v100.4c2.7-4.8,6.8-1.5,10.3-2.1,17.6-3.2,34.9-4.5,52.4-7.1,29.6-4.5,61.6-13.9,90-14.7,22.7-.7,41.5-10.1,64.3-12.8,10.2-1.2,19.4,2.2,23.6,1.9,3.3-.2,6.8-5.3,11.4-6.8,7.7-2.6,42-13.6,46.7-13.4,6.6.2,8.3,5.6,19.7,2,4.8-1.5,12.5-8.9,16.2-9,2.6-.1,10.4,4.7,15.9,4.8,13.4.4,30.8-7.7,37.9-7.7,14.4,0,70.7,5.9,78.6,2.7,2.3-.9,2.1-4.2,3.8-4.6,10.7-2.4,54.7-.8,67.6-.1,9.7.5,23.8,5.3,35.6,3.8,24.6-3.1,44.4-3.8,68-5.5,36.7-2.8,65.4,5.9,100.4,7,18.8.6,39-1.9,57.7-1,5.6.3,15.4,6.5,21.8,7.9,8.2,1.8,14.7-1.4,22.3,1.5,10.6,4.1,4.4,1.7,15.5,2.5,37.2,2.9,59.9,16.5,100.2,9.9,24.7-4,36.1,1.3,59.8,2.1,5.2.2,10.2-2.7,16-2.3,4.9.4,8.2,3.8,11.9,3.9,7,.3,18.4-5.9,28.1-5.9,11.7,0,25.6,5.3,37.9,6.2,33.5,2.5,67-3.5,99.9-6.1,21.9-1.7,49.7,4.1,72,2.1,4-.4,5.4-4.7,8.4-5.6,1.8-.5,22.4-5.3,23.6-5.5,5.6-.6,10.7,5,16,5.2,46.8,2.6,95.6,2.4,141.8,2.8,7.2,0,16.8-2.2,24-1.9,12.5.5,26.9,6.7,38,6.9,16.3.2,29.3-5.5,47.5-1.5,48.6,10.6,92,3.2,141.6,6.7,28.1,2,62.5,4.9,90.6,5,14.1,0,28.7-5.2,42-6.1,8.3-.6,15.4,2,21.7,1.8,13.7-.5,27.5-5.8,41.2-5.8v-61.5h-1922Z"/>
</svg>