<?xml version="1.0" encoding="UTF-8"?>
<svg id="Calque_1" data-name="Calque 1" xmlns="http://www.w3.org/2000/svg" viewBox="0 0 856.74 525.43">
  <defs>
    <style>
      .cls-1 {
        fill: #fff;
      }
    </style>
  </defs>
  <path class="cls-1" d="M291.31,63.58c-9.91.71-25.63.42-42.16,0-.63-2.72-3.23-2.93-7.53-.98-8.01,1.66-16.19,2.65-25.63-1.47-3.07-.85-6.91-.63-11.05,0-2.81-2.65-5.62-3.61-8.41-1.76-3.67-.73-7.59-.04-11.64,1.37-4.14-1.84-9.51-3.18-15.65-4.21-8.98.31-19.49,2.29-31.5,5.87-.27-1.11-.42-2.18,0-3.13,1.08-.46,1.89-.98,0-2.05-3.37-1.69-5.88-1.22-8.02.2-3.96-3.5-9.54-4.65-16.83-3.33-5.39-1.37-14.5-1.33-24.16-1.08-8.76-7.12-18.68-12.63-30.82-15.07-13.81-2.9-27.83-5.96-36-4.5-1.38.19-1.32.87,0,1.96,1.8.28,3.49.34,4.89-.2,1.63.62,3.23,1.25,3.23,2.54-.59.5-2.55-.19-4.4-.78-2.79.02-2.91.62-.1,1.86,15.73,7.66,34.51,15.04,37.86,23.87,2.04,1.15,3.48,2.44,3.62,4.01-1.52-.79-3.91-2.42-6.46-4.21l-2.71,3.95c.53-3.02-.31-4.56-3.33-3.78l.78-2.54c-5.61-3.44-21.25-10.82-35.74-17.74-4.86-2.37-5.66-1.67-1.63,2.67-34.7-18.61-9.66-2.39-2.09,3.65,4.57,3.86,9.89,6.74,16.24,8.28,3.68,10.07,9.85,20.44,20.54,31.37,1.03,5.63,2.27,10.72,4.37,13.63l.78,26.41c.46,1.34,1.1,1.46,1.96.2,1.39-6.03,3.01-12.4,2.54-15.72,1.65-.09,2.13-.75.98-2.22,1.39-.63,2.42-.6,2.54,1.04-1.86,1.05-2.04,2.87-1.24,5.15.21,9.99.86,12.34,2.28.98.77-.36,1.53-.5,2.22.13.23.65.12,1.48-.07,2.35l-.07,5.02c.03.88-.4,1.58-1.17,2.15-1.16-.45-2.3-.73-3.39-.07-.53.39-.26,1.22.2,2.15.4,1.28.23,2.3-.39,3.13-.66,5.23-1.28,10.85-2.35,12.39.16,1.87-.41,2.82-1.17,3.52-.51,4.69-.95,3.2-1.37-.26-1.35-3.07-2.38-3.87-2.74-.07.41,3.13.9,6.12,2.02,7.96-.16,2.59,2.44,6.63,5.22,10.76.23,2.47.87,3.49,2.54.91,1.25,9.73,3.28,21,1.24,24.26-.8-1.94-1.88-3.55-3.46-4.57-1.03-4.49-1.9-4.32-2.61.07.49,3.63,1.31,7.06,3.85,9.46.55,1.65,1.62,3.68,2.74,5.8.32,1.59-.37,3.02-2.02,4.3-1.13-2.64-2.22-3.93-3.13.07,1.58,15.71,2.9,32.72,6.33,39.29,1.06,3.91,3.02,9.54,5.18,15.55.07,1.81-1.04,3.21-4.7,3.72-3.01,1.16-2.02,7.92-.98,14.87.66,11.08,1.55,21.53,3.91,27.98-.15,7.79.12,14.93,1.76,19.96l-.78,29.54c-.7,3.19-.39,6.48,1.08,9.88-1.35.82-1.11,2.95-.88,5.09-1.53,1.09-.94,3.75-.68,6.16l-7.83,23.28-1.27,4.11c-1.93,2.17-1.68,9.57-1.66,16.43-1.04,3.69-.94,5.68,3.62,1.08.95-1.33,2.16-2.12,4.01-1.57.05,2.69.56,3.44,2.15-.39,1.99-7.18,3.76-14.15,2.84-18.49,2.5-3.22,2.51-5.6.98-7.43.12-3.52,1.13-6,3.03-7.43.46-1.71.32-3.51-.29-5.38.28-1.17.7-2.25,1.47-3.13l.2-4.4c.7-1.56,1.65-1.66,2.93.29,2.6,1,1.19,4.24-1.17,8.02.52,1.51.08,3.09-.68,4.7.07,2.19-.46,4.53-1.37,6.95-.15,2.02-.93,4.08-2.05,6.16.35,2.15-.17,4.19-1.17,6.16-.41,2.03-.8,4.67-1.17,7.53,1.55.59,3.04,1.2,2.25,2.54-.43,1.44-.42,2.98,0,4.6-2.39-.66-3.45.27-2.25,3.91-6.8,12.14-9.43,29-9.49,43.04-1.41,2.13-2.26,10.13-3.23,16.92-.23,9.42.52,9.59,2.25.49,2.27-2.78,4.19-5.55,3.52-8.22,2.75-3.03,3.49-7.44,3.52-12.33,2.95-3.88,5.01-7.85,5.09-12.03,1.91-3.55,3.81-7.05,5.38-8.61,1.02-2.77,1.87-5.68,5.38-6.26,1.04-.76,3.38-1.08,7.53-.78,7.42-3.57,14.61-6.45,21.03-7.04,3.21-7.58,7.99-14.33,23.48-15.46l8.9-2.54,2.74-.88c1.22.17,3-.68,4.79-1.57l2.45-.49c.83-1.35,3.48-1.56,6.75-1.37,4.89-1.71,9.72-3.37,12.52-3.42,1.17-.91,2.26-1.86,2.32-3.23.32-1.2-1.03-1.5-2.81-1.57.91-1.71,2.11-3.12,3.52-4.3,7.9-7.49,16.71-15.62,26.12-24.16,1.54-2.73,4.3-4.76,7.63-6.46,1.07-.82,1.82-2.13,2.35-3.82,2.11-.44,4.12-.92.29-3.23-.8-.25-1.59-.3-2.35-.1-3.14-4.21-6.85-8.08-11.25-11.54-2.79-3.61-4.98-2.83-6.85.29-5.17-.67-9.22,1.31-12.72,4.6-4.98-.76-8.16,2.45-10.96,6.46-3-6.68-11.51-4.66-22.79,1.76-8.72,2.6-17.01,4.75-23.58,5.18-2.92.64-3.44,2.21-2.54,4.3-2.85-2.32-5.67-3.76-8.32,1.17l1.86,1.47c-1.43.62-2.37,1.76-2.93,3.33.24-4.15.37-8.13-1.96-8.8,2.18-1.56,1.48-3.43,0-5.38,1.49-10.74.44-23.18-2.05-36.59,2.6-16.07,7.25-33.95,3.03-42.07,2.67-9.5,3.23-18.85.88-27.98,1.16-10.11.95-19.93-4.99-28.57,8.54-.14,12.83-.87,13.89-2.05,5.28.39,11.29.28,17.71-.1,4.91-3.26,9.39-6.89,13.4-10.96,3.27-.52,4.57,1.12,3.23,5.67.59.89,1.58,1.02,3.03.29-.3-1.2.05-1.72,1.08-1.57,1.14.37,1.91.22,2.54-.1,3.4-4.24,6.72-8.14,9.78-10.86-.07-1.69.9-2.57,2.54-2.93,8-6.6,16.59-12.84,16.63-24.36.78-2.21.21-2.92-2.64-1.08-12.85,4.48-30.33,6.16-51.26,5.77-.13-1.01-1.81-1.66-3.72-2.25,3.69-1.15,8.91-2.29.59-3.62-.13-.15-5.47-.44-9.2-.68-4.17-.24-4.73.28-.39,1.86,2.68,1.31,2.8,2.74,0,4.3-3.98,1.5-11.47-.65-19.86-3.72-1.01-1.83-2.79-2.73-5.09-3.03,0-3.06.22-5.92.78-8.41.56-2.51.31-5.64-.39-9.1.75.1,1.57.47,2.54,1.47.54,1.08,1.33,3.54,2.15,6.16,1.33,1.19,2.29,1.42,2.25-.98-2.69-6-3.43-12.51-2.15-19.57,2.46-7.28,3.83-18.07,4.28-22.16.46-.66-1.58-1.55-2.91-2.4,1.17-2.72,6.53-9.54,11.25-15.75-.26-2.44,1.05-4.37,3.62-5.87,5.35-.28,10.45-.36,14.09.78.76,1.2-.41,1.84-2.74,2.15-.34.72-.23,1.51.2,2.35.78.98,2.71.89,5.38.1,7.34-4.8,17.04-6.51,28.76-5.58,3.71.69,7.4.9,11.05.39,1.74,1.22,3.22,2.46,1.37,3.82-2.52,1.12-1.67,1.62,2.25,1.57,4.7.52,9.51,1.15,9.68-2.35,2.08.52,3.31.15,3.13-1.66,6.12-2.62,13.76-5.31,13.99-7.63,1.5.63,2.94.63,4.3-.2,3.61-1.81,6.15-4.61,7.04-8.9.25-1.49,3.17-2.83,7.04-4.11,1.17-.94,2.5-1.69,4.21-1.96,4.33-1.84,8.63-3.73,14.09-4.21l8.12-1.37c2.15-.4,4.47-.42,6.95-.1h7.04c2.94-2.03,5.5-3.39,7.14-3.13.76-.61,2.26-.76,3.62-.78h3.43c.74-1.23,1.73-1.81,2.93-1.86.39-.5,1.11-.7,1.86-.88,1.11-.16,2.22-.16,3.33-.1,1.95-.92,4.21-1.7,4.3-3.42-.29-1.13-1.5-1.45-2.93-1.57l-2.25,1.08.02.11Z"/>
  <path class="cls-1" d="M121.29,281.9c-2.22.2-2.15,7.28-2.54,12.98-.22,9.68.14,12.34.68,12.68.88-1.45,1.76-6.21,2.64-12.36.3-5.91,1-12.87-.78-13.3h0Z"/>
  <path class="cls-1" d="M210.7,383.38c-3.69-1.45-7.27,2.12-10.86,5.58-2.62,1.93-4.19,3.95-5.87,5.97,3.35-2.75,6.61-5.24,9.29-6.26,1.59-.7,3.22-1.03,4.7-3.03,1.04.36,2,.48,2.74-.1.57-1.08.73-1.9,0-2.15h0Z"/>
  <path class="cls-1" d="M470.23,0c.86,3.06,1.46,6.17-.68,9.78.23,7.34.26,14.23-.59,19.17-.76,1.31-.89,4.98-.88,9.2.41,1.24-.05,2.43-.59,3.62,1.45,2.98,2.42,6.55,0,14.48-.64,1.82-.33,3.93.36,6.16,3,4.56,4.23,10.06,2.38,17.22-.67,4.37-1.27,8.68-1.14,12.26,1.4.52,1.26,2.12,0,4.5,1.01,3.13,1.35,6.03.07,8.41,1.19,1.62,1.93,5.1,2.48,9.46.69,10,.86,19.27-.78,25.89-.93,4.18-.91,9.28-.39,14.87.96,10.52,1.62,20.5.52,27.33l1.24,15.59c.91,19.64,1.06,42.04.78,65.93.02,19.6.36,42.3-.91,49.37-1.74,2.31-2.93,5.74-3.07,11.35-2.14,1.5-1.44,4.35-.78,7.17,1.03,2.05,1.96,5.48,2.41,15.91.91.46,1.21,1.53.65,3.46-.47,2.92.28,3.42,1.24,3.52.98,8.07,1.16,16.07.46,24-.99,3.11-1.88,4.53-2.35-.39-.87-5.77-2.35-5.76-4.5.39.44,8.63-.22,17.04-2.02,25.24.35,9.77-.03,21.83-.72,34.83-.57.54-1.17.59-1.83,0-3.01-1.71-4.26.07-5.09,2.67-.68-.8-1.38-.51-2.09,0l-.39.52c.35,1.37-.23,2.02-1.04,2.48.44.45-.17,1.66-.78,2.87.19,1.39.12,3.11-.26,5.22-.99,1.75-1.6,3.77-1.89,6,.84,2.73.58,6.37-.2,10.43-1.14,5.84-2.24,12.15-3.72,14.15-.94-.68-1.85-1.02-2.59,0l-1.65,18.59c-.49,3.93-1.09,5.99-1.83,5.61.13,2.02-.03,3.89-.98,5.35-.13,1.58-.53,3.23-1.24,4.96.04,2.54-.05,4.93-.65,6.78-.93,1.67-1.42,1.2-1.76,0,.03-1.94.31-3.76.91-5.41-.06-3.03.18-5.79,1.17-7.89.32-2.3.83-4.4,1.76-6.07-.19-1.95.04-3.78.52-5.54-.28-2.57.03-4.18.65-5.28-1.07-4.15-1.92-8.27-.85-12,.89-14.04.98-32.36,3.93-35.28.39-.97.21-2.71,0-4.5.26-1.1-.56-1.98-1.98-2.74-.1-10.4-.43-23.01.2-26.35-.88-.98-1.52-2.24-1.24-4.57-.09-4.6-.09-9.11,1.7-11.67-2.06,1.13-3,.16-2.93-2.67-.33-2.93-.79-5.94.78-7.63-1.09-.41-1.4-2.05-1.57-3.91-1.5-17.33-1.95-37.09-1.83-58.17.23-1.31.62-2.44,1.37-3.13-.55-10.42-2.78-23.66.72-27.26-.99-2.13-2.11-3.97-3.65-4.89-.67,1.69-1.34,3.16-2.02,4.17-1.34,1.25-2.15.78-2.48-1.24-.29-1.41-.18-2.92.72-4.63,1.47-4.25,2.6-9.71,4.83-11.22-1.25-.8-1.69-2.13-1.63-3.78-1.78-1.53-3.14-3.32-3.78-5.54-1.95-4.65-5.45-2.09-8.93.39-6.55-.27-11.96-1.13-10.76-5.35-1.25.77-2.71.66-4.3,0-1.14-.11-2.34.02-3.59.33-1.62.4-3.11,1-4.24,2.22-1.43-.47-2.73.17-3.98,1.24-5.09,2.28-9.92,4.86-13.17,9.2,1.11,2.1.61,3.48-.52,4.57,1.05,6.76,1.46,13.4.98,19.89,1.1,30.5,2.74,65.33,1.57,78,.34,1.27-.13,2.94-.78,4.7-2.02,3.28-1.94,6.61.59,9.98.71.92.63,2.45.39,4.11.23,2.78-.75,4.19-3.59,3.46-.61.89-.48,2.37,0,4.11,1.68,2.82,2.68,5.76,2.09,9,1.08.4,1.84,1.16,2.15,2.41,1.02,18.91,3.11,44.71,1.89,49.17-.82,1.85-1.68,2.38-2.67-.2-.08-2.79-.16-5.63.13-6.98-.61-4.48-1.73-9.79-.72-11.61-.9-.98-.95-2.22-.59-3.59-.76-.58-.91-1.78-1.04-3-1.05-.98-2.02-1.27-2.8.13,1.21,11.34,2.39,22.54,2.28,28.57.75,2.43.82,9.09.98,15.2,1.87,9.98,2.95,21.41,3.46,33.91,1.01.72,1.35,2.71,1.3,5.48-1.2,1.15-2.23.16-3.13-2.28-2.53-13.81-5.08-27.69-5.67-34.57-2.23-7.28-3.99-14.25-5.09-20.8-2.35-5.67-4.66-10.7-6.85-13.43-.95-.88-1.25-1.94.13-3.52.33-1.81.08-3.45-.59-4.96-2.02-5.8-3.38-11.15-3.2-15.39-4-8.37-5.41-7.77-4.63.39,1.32,4.95,2.19,9.78,2.41,14.41.65,4.23-.57,2.49-2.15-.39-1.84-4.99-3.13-9.89-3.33-14.61-1.18-15.48-2.46-32.44-3.07-38.54-.88-2.68-2.45-2.77-4.37-1.57.07-4.27.47-8.23,2.09-11.02.05-6.54.35-14.15-.46-16.83-1.41-2.38-3.04.22-4.7,3.46.22-2.28.36-5.21.46-8.61-.93-3.92.24-6.85,1.11-9.91.22-7.49,1.02-14.41,5.48-17.74,1.11-4.72.75-8.68-1.83-11.48-1.74-7.89-.49-16.82-2.22-19.89-.23-3.34-.7-5.64-1.57-6.33l-.13-50.09c.2-1.9.54-3.71,2.09-4.83-1.39-.57-2.38-1.76-3.07-3.39-.4-5.53-.5-10.74.13-15.13.85-2.41,1.3-5.93.33-13.3-.43-17.14-.97-34.9.13-42.78,2.11-2.68,2.28-6.59.39-11.8-.89-9-2.78-19.36,1.5-21.39-.04-5.38.13-10.3.98-13.7.41-1.99.27-4.36-.13-6.91-.75-6.04-.81-11.75.2-16.96,3.8-11.26,7.41-23.38,12.78-27.33-.22-3.6.63-6.86,2.35-9.85-.51-5.4-.77-10.52-.2-14.74-1.29-1.51-1.49-3.23.46-5.35,1.35-1.45,2.52-3.78,3.2-8.61.44-3.69,1.62-7.79,3.13-12.07,1.11-5.47,3.11-2.27,2.54.33,0,0-1.44,27.59-.91,27.85.78,3.9,1.5,8.01,1.24,15.65,1.58,4.44,3,13.17,3,13.17,1.09-.1,3.82,5.84,2.67,11.22.3,6.6.79,12.99,1.63,19.04.91,6.72,1.45,13.01-.65,16.24-.1,1.67-.82,3.03-2.09,4.11-.2,1.05-.09,1.99.33,2.8,1.31.22,1.34,1.17.98,2.35.12,1.66-.24,2.64-1.3,2.67,1.54.76,1.99,2.82,2.09,5.28.17,2.79.11,6.32-.07,10.24,1.12,5.78,1.69,12.02.98,19.37.28,5.17.18,10.24-.39,15.2,1.01,1.24,1.73,3.2,2.09,6.13-.1,2.69.23,5.93.72,9.39.59,3.79.72,7.6,0,11.41.13,6.86.44,13.17,1.3,17.8,17.35-.92,33.46-1.4,45.85-.52,2.04-1.07,3.61-2.95,4.57-5.87-.46-3.06-.29-6.38.26-9.85,1.67-.83,2.65-2.4,2.67-4.96-.29-27.39-1.21-62.32.2-69.59-1.54.05-1.92-.98-2.15-2.15-.48-6.11-.42-12.17.2-18.2.54-1.06,1.34-1.63,2.41-1.7.07-5.82.55-11.14,1.83-15.52-.48-.17,5.55-15.06,6.13-15,.46.05.58-13.19,2.35-13.24,1.22.98,2.41,1.02,3.59,0,2.55-9.69,4.93-21.29,8.02-24.59.56-1.97,1.01-3.78.65-4.5-1.76.38-2.03-.87-1.7-2.8,1.44-5.7,2.92-11.26,5.02-14.54.66-2.97,1.53-5.65,2.8-7.76l.78-3.59.65-3.52c.35-1.34.98-2.41,2.12-3h0Z"/>
  <path class="cls-1" d="M358.81,445.95c-.4.85-.38,1.72,0,2.61.41.58.9.87,1.43,1.04.08-.62.14-1.24,0-1.83-.13-1.13-.61-1.74-1.43-1.83h0Z"/>
  <path class="cls-1" d="M319.03,258.13c1.26-3.84,2.03-3.54,2.35.52,1.22,7.18,2.03,14.12,2.09,20.61.88,5.54.71,11.73,0,18.26,1.74,8.2.94,14.1-2.22,17.87.97.72,1.82,1.52,1.04,3.26-.47,4.01-.09,10.13,0,15.52,2.4,3.4.88,8.09-1.04,12.91-2.84,2.61-5.24,5.24-5.61,7.96-.79,4.12-3.28,5.93-7.43,5.48.1,1.13-.39,1.83-1.83,1.83.11,2.01-.51,3.35-1.96,3.91,3.8,3.1,1.11,4.87-2.22,6.52,2.44.06,3.3,1,1.57,3.39,0,3.59-2.36,6.49-4.7,9.39.33,3.35-.71,4.65-2.87,4.3,1.76,1.37,1.81,2.76.26,4.17-1.25,10.03-3.46,12.4-6.91,4.96-1.05-.36-1.44-.09-1.04.91,1.3,1.42,2.31,2.96,3.13,4.57,1.43.86.89,2.39-.39,4.17-.82,1.53-1.14.82-1.43,0-1.22-1.09-1.01-2.4-.26-3.78-.93-1.84-2.14-3.47-3.52-4.96-.34-.89-.83-.9-1.57.39-.24,1.11-.8,1.17-1.57.52-3.03-.41-4.49-2.04-4.96-4.43-.39-.95-.43-1.91-.13-2.87-.37-.98-.19-1.84.39-2.61-.64-1.85-1.93-3.35-3.26-4.83-.56-.92-1.05-1.3-1.43-.91-5.22-5.49-5.69-4.27-3,1.43.93,2.68,1.24,4.5-1.96,1.43-1.7-1.33-2.59-3.22-3.13-5.35-1.72,1.08-2.98.69-3.78-1.17-1.98-.02-5.62-2.91-9-5.35-2.09.73-3.1,1.77-1.7,3.52l6.91,6.78c10.83,13.14,8.5,12.04-2.74,1.3-2.94-2.16-9.39-8.54-13.96-15.26-2.06-.45-3.34-1.45-4.04-2.87-1.02-2.81-.22-3.36,2.48-1.57,2.62.52,3.16-.85,1.57-4.17-3.94-2.62-8.3-6.78-12.78-11.35-1.37-2.25-.8-3.6,1.17-4.3,1.12-1.81,0-3.7-1.57-5.61-.74-3.66-3.86-7.62-7.17-11.61-.03-1.89-1.13-2.49-2.74-2.48-.45-1.48-1.32-2.43-2.61-2.87-1.12,1.01-1.3,2.27-1.04,3.65,1.36,3.11,3.49,6.56,6,10.17,1.06,3.79-.67,2.58-2.87.52-3.53-3.34-6.93-9.21-10.3-15.52-.31-.92-.32-1.79,0-2.61-3.34-2.71-4.58-7.07-5.61-11.61-2.46-11.84.49-46.02,1.96-77.35.16-.9-.31-1.5-1.3-1.83-1.07,1.01-1.74.89-1.96-.52-1.55-9.26.29-23.66,2.48-38.61-.23-6.1,2.53-19.29,2.61-33.78,5.36-.21,4.04,8.17,2.61,16.7l-.91,6.78c1.65,3.44,3.16,2.57,4.57-1.43,3.92-10.3,2.07-25.73,0-41.35,1.01-4.56,2.77-7.78,6.13-8.22.43-2.18,1.5-3.53,4.04-3,.4-4.13,2.96-6.18,8.35-5.48.16-1.39-.51-2.78-1.57-4.17.43-2.69.16-4.64-1.17-5.48-.02-2.23,1.19-2.74,3.13-2.22,10.9.73,19.76.1,22.57-4.57-.15-.8-.66-1.46-1.57-1.96.6-2.7-1.07-2.29-2.87-1.7-.65,1.18-4.13,1.12-7.96.91-.68-2.96.75-4.8,4.83-5.22,5.21-.32,10.08-.32,12.52,1.83,2.3-2.15,5.05-3.25,8.48-2.74,4.73-2.95,11.35-3.76,18.78-3.65,1.63-.6,2.79-1.84,3.39-3.78,4.32-1.17,8.07-.13,11.61,1.7.31,1.23-.85,1.61-3,1.43-.87.92-1.04,1.74-.65,2.48,1.04-.99,1.95-1.15,2.61.26,6.19,3.22,7.56,6.15,7.43,9,3.34,1.9,6.14,4.31,8.61,7.04,3.97.8,7.11,1.99,5.74,5.35,1.87,2.83,1.12,3.53-1.3,2.87.31,1.16-.25,1.72-2.09,1.43-.38,1.04-.4,1.88.26,2.35,2.41-.41,3.25.98,2.74,3.91,1.98,2.72,1.33,4.04-1.3,4.3.11,2.3.6,4.47,1.43,6.52,2.73,2.32,3.36,4.81,3.91,7.3,1.35,1.71,1.65,3.24-.13,4.43,1.19,8.58,3.58,19.36,6.39,30.91.15,1.39-.26,2.12-1.57,1.83.62,1.33.7,2.39.13,3.13-.24,5.04-1.51,3.7-2.87,1.83-.63-1.04-.48-2.13.26-3.26-2.46.26-3.58-.14-1.83-1.96-1.67-.59-2.44-1.42-1.83-2.61-1.13,1.41-.68,2.62-2.35.91-1.92-1.16-4.74-7.89-7.3-13.04.07-1.28-.59-2-1.57-2.48-.88-.48-1.62-.52-2.22-.13,1.16,5.1.72,9.07-1.04,12.13.52,4.84-1.67,7.66-3.91,10.43-.27,2.94-.97,3.53-2.35.52-1.79.47-2.22-.62-2.09-2.35.21-.7.25-1.36,0-1.96,0-8.91-3.53-19.02-6.52-28.96-2.08-.11-3.75-1.3-5.22-3-.5-1.21-1.45-1.61-2.74-1.43-5.51-1.9-5.28-6.09-5.35-10.17-1.54-1.04-2.99-1.44-4.3-.78-1.26.6-1.96,1.39-1.83,2.48.79,1.04.76,2-.26,2.87-2.05,4.08-5.13,5.38-8.22,6.65-2.12.28-2.21-.63-1.83-1.83,1.03-1.79-.95-2.19-2.61-2.74-2.1,2.52-4.72,2.81-7.57,2.09-.65-.01-1.06.29-.91,1.3.66,8.1.87,15.57-1.17,19.83.12,1.77-.35,2.82-1.83,2.61-1.09-.65-1.57.2-1.96,1.3.16,3.75-1.69,7.25-3.91,10.7.3,4.89,0,10.92-.52,17.35,4.13,4.12,1.5,16.67.13,27.65.08,1.89-.61,2.57-2.61,1.17-.59,1.73-1.81,1.33-3.39-.26l.65,3c1.76.36,2.65,1.04,1.17,2.61l.91.91c.93-1.98,1.88-1.87,2.87.39-.11,5.04,2.07,3.78,5.35-.52.36-1.37,1.3-2.71,2.48-4.04,2.4,2.12.63,6-.91,9.78.58.52.81,1.3.65,2.35.52,7.16-.62,26.19-1.57,43.83,2.12,3.65,2.86,7.06.39,9.91-.21,2.8-.11,5.24.78,6.78,6.7,13.42,13.66,25.65,21.78,32.61,7.02,1.28,12.42-1.13,16.43-6.65,3.62-7.72,7.95-14.7,13.04-20.87-.27-2.72-.07-5.25.65-7.57,1.11-4.05,2.57-7.53,4.57-10.17.16-.82,0-1.65-.26-2.48,2.99-4.17,2.33-1.41,1.83,1.04.17,3.96-1.84,7.08-3.26,10.43.51,3.71,1.31,5.22,2.74,1.7,2.51-5.09,4.34-10.49,5.22-16.3.63-2.75,1.33-5.26,2.35-6.52.82-9.37,1.61-18.97,3.26-22.7l.03.09Z"/>
  <path class="cls-1" d="M271.81,392.87c.01-.8.2-1.49.78-1.96.71-.32,1.3.16,1.83.98.26.92.09,1.71-.78,2.28-1.08-.09-1.76-.47-1.83-1.3Z"/>
  <path class="cls-1" d="M273.9,408.65c.39,5.37-.65,5.37-3.13,0-.24-.93-.28-1.81,0-2.61.38-2.11.72-1.71,1.04,0,.06.57.23,1.01.52,1.3.52.74,1.04,1.17,1.57,1.3h0Z"/>
  <path class="cls-1" d="M505.16,116.22c-1.19.21-2.31.6-3.26,1.43-1.14-.06-2.73.95-4.43,2.22-1.18.02-1.88.46-1.96,1.43.2.97,1.1.77,2.35,0,2.75.09,4.66-.16,5.09-2.54,1.36-.55,2.09-1.41,2.22-2.54h0Z"/>
  <path class="cls-1" d="M557.46,152.35c-.54-1.58-1.64-2.58-4.3-1.96-1.88.19-3.15.8-3.65,1.96,1.81-.31,2.82.26,3.39,1.04,2.22.51,3.77.21,4.57-1.04h-.01Z"/>
  <path class="cls-1" d="M628.81,136.43c.05-.63.42-1.16,1.17-1.57.84.33,1.12.93,1.3,1.57-.1.61-.43,1.12-1.24,1.43-.71-.24-1.16-.68-1.24-1.43h.01Z"/>
  <path class="cls-1" d="M624.56,168.8c.81-.52,1.45-.39,2.01,0,.17.59.17,1.17,0,1.76-.64.08-1.31-.01-2.01-.24-.32-.44-.25-.96,0-1.52h0Z"/>
  <path class="cls-1" d="M652.04,221.53c-2.91-2.39-3.17-1.51-1.52,1.76,2.22,4.42,7.5,9.7,13.21,15.11,2.99,2.5,2.81,1.43,1.27-1.17l-12.96-15.7h0Z"/>
  <path class="cls-1" d="M488.07,334.3c.5-.75.58-1.6,0-2.61-.35-1.73-.97-2.26-1.83-1.7-.13.94-.17,1.89,0,2.87.33.82.99,1.23,1.83,1.43h0Z"/>
  <path class="cls-1" d="M591.12,380.74c.24-.67.63-1.28,1.43-1.7.83.38.98.99.91,1.7-.21.48-.57.93-1.17,1.3-.78-.26-1.17-.7-1.17-1.3Z"/>
  <path class="cls-1" d="M626.28,268.31c.29-1.07-.15-1.89-.78-2.64-.52-.9-.06-2.11.68-3.42.69-1.79,1.3-3.57.98-5.38,1.43-3.45,1.19-5.51-.98-5.97-1.15-8.87-1.74-17.49.29-24.95.85-10.61,1.83-21.59.49-26.22,1.34-4.91,2.67-9.82,1.37-16.24-1.03.83-1.78.28-2.45-.68-2.14.28-1.87-.81-.49-2.54,1.05-2.14,1.81-4.31.98-6.65-1.09-1.59-2.25-3.05-3.62-4.11.3-1.97-.35-2.32-1.66-1.57-1.29-.41-.89-1.22,0-2.15,1.1-.22,2.19-.39,2.93.68,1.07.43,1.52-.09,1.37-1.57l-.98-1.17.1-2.35c.34-2,.94-3.31,2.45-2.25,1.57.44,2.5.02,2.84-1.17-.25-3.05-.63-5.87-1.66-7.63.02-1.03-.29-1.85-.78-2.54-1.02-1.33-1.51-1.27-1.17.98.18,1.45.14,2.77-.68,3.62-.35.56-.82.84-1.76,0-1.06-.16-1.73-.81-2.15-1.76.91-7.09,2.93-14.98-.78-18.78.99-.22,1.63-1.07,1.86-2.64.32-3.34-.27-4.73-1.86-4.01-1.95-2.66-3.81-5.33-4.01-8.22-.78-1.2-1.36-1.7-1.27.2.1,1.15.43,2.33.98,3.52.26,1.55-.03,1.81-.78.98-.6-.79-1.45-1.2-2.64-1.08-.41-1.81-1.52-2.82-3.33-3.03-.89-2.42-2.36-3.98-5.28-3.42.7-2.63-.3-4.33-1.76-5.77.3-1.68-.48-2.52-2.35-2.54-.02-1.64-.9-2.64-2.35-3.23-.84-1.41-1.92-2.53-3.72-2.84.35,2.1-.46,2.51-2.05,1.76-3.4-3.01-7.02-5.45-10.96-7.14-1.77-.98-2.91-2.71-3.91-4.6.36-2.06.1-3.7-2.28-3.85h-.04c-3.04-4.72-7.4-2.12-12,1.84-16.03,5.5-31.64,13.5-46.96,24.26-3.51.18-6.59.68-6.85,3.29,2.48,1.01,1.87,2.92,0,5.18-.84.39-1.34,1.04-1.27,2.15-2.42,1.3-5.27,2.46-5.28,4.6.06.89.72,1.43,1.57,1.86.67,1.2.36,1.98-1.57,2.05-1.33.75-1.54,1.5-2.05,2.25-1.76-.75-2.48.74-2.25,4.3-3.04,1.02-3.55,3.94-2.64,7.92-3.48-.34-5.03,1.24-5.09,4.3-.62,4.08-.84,8.52-.78,13.21-.22,3.17.08,4.04,1.27.98,2.56.5,2.01,2.41-.2,5.09-1.11,6.79-1.86,13.23,1.57,15.46,1.5,1.85,2.61,3.75,1.76,5.87-1.68-.4-2.26.45-2.15,2.05-1.38.27-1.87,1.92-1.37,5.09,2.47-.54,3.64.4,2.74,3.72,1.03,3.13.72,5.52-1.37,6.95-1.5,2.27-1.58,4.03.29,5.09,1.42,1.5,2.56,3.12,2.84,5.09-.56.67-.72,1.49,0,2.64.17,1.87-.9,2.49-2.74,2.35-1.58-1.62-2.23-1.08-1.66,2.35-1.3.17-2,1.89-2.54,4.01-1.47,34.74-3.32,71.97-1.76,86.58,2.46,4.63,5.15,8.9,8.32,12.42.64,2.9,2.28,5.78,5.97,8.61.84,1.21,1.53,2.45,2.05,3.72-1.02.27-1.55.78-1.37,1.66-1.28-1.2-3.74-1.58-7.04-1.37-3.74-4.24-4.1-2.84-3.13.78.98,2.14,2.37,4,4.6,5.28,2.92,1.8,5.59,4.41,7.73,8.71.86,1.67,3.06,3.66,5.38,5.67,2.54,2.71,2.73,2.11,1.08-1.08-.6-1.03-.3-2.01.88-2.93,1.24-.14,2.14.09,2.74.68,1.3,1.65,2.68,3.12,4.3,4.01.59.53,1.11,1.19,1.47,2.15,2.64,4.93,5.41,10.28,7.14,12.13,2.05,4.97,4.86,9.45,8.61,13.3.36,1.12,1.48,2.36,2.74,3.62,1.58,1.71,2.59,1.55,2.84-1.17.62-.4,1.19-.4,1.66.39.2.99.68,1.92,1.66,2.74.73-.08,1.44.87,2.15,1.76,1.14.76,2.04,1.43-.98.59l-2.25-1.66c-1.69-1.11-1.71-.42-.88,1.17,2.59,4.88,5.12,9.87,9.78,10.66.83,1.85,1.99,2.07,3.72-.59.83-.71,1.62-.96,2.35-.59,3.44.51,5.75-.8,6.75-4.21,1.78-.38,3.18-1.05,2.45-3.33.41-.49,1.15-.56,2.15-.29.77,2.25,1.52,1.36,2.25-1.37.39-1.14,2.12-2.74,4.3-4.5,1.37-2.71,2.75-5.4,3.82-6.46.28-.81.24-1.73,0-2.74.23-.97.73-1.57,1.57-1.66,1.25-.29,1.37-1.22.98-2.45.84-.41,1.8-.7,3.42-.29.9.19,1.3.89,1.17,2.15-.91,1.39-1.35,3.13-1.47,5.09-.37,3.44.35,2.68,1.47.39.93-1.26,1.31-2.9.88-5.09,1.13-1.76,2.33-3.27,3.72-4.01,1.52-1.42,2.21-3.24,2.05-5.48,1.35-.52,1.99-1.52,1.57-3.23.57-.18.99-.66,1.27-1.37.74-.27,1.46-.41,2.15.1,1.15.11,1.85.43,1.17,1.37-.04,1.38-.4,2.35-.98,3.03-.56,4.13.08,5.17,2.05,2.74.18-1.09.51-2.05,1.37-2.54.42-1.21,1.07-2.19,1.86-3.03.31-2.71.48-5.33,0-7.53,1.16-.17,1.9-.94,1.96-2.64,3.28-2.78,6.25-5.68,5.28-10.08,1.07-.64,1.48-2.09,1.17-4.4,1.94-1.8,4.26-3.47,4.7-5.77.82-1.1.98-2.06-.29-2.74-.73-.17-.65-1.12-.39-2.25.66-3.08,1.34-6.16,4.01-8.41,2.08-2.67,3.83-5.35,3.62-8.12,1.25-2.77,1.65-6.15,1.17-10.17,2.76-5.04,3.65-10.57,2.54-16.63.65-5.98,1.35-12.12,1.08-15.07.89-3.82,1.11-7.18-2.64-7.83ZM591.63,182.09c-1.21.65-1.31,3.23-1.3,6l.39,18.78c.64,4.34.67,8.49-.13,12.39-.57,2.27-.62,4.68-.26,7.17-1.03,3.47-.51,6.29,1.17,8.61.04,3.05-.21,5.66-1.57,6.65-.57,6.5-.11,14.27.78,22.57.08,3.99,0,7.46-.65,8.87-.51,4.85-.05,10.94.65,17.35-.99,1.43-1.05,3.24-.78,5.17.36,2.14.29,4.05-.13,5.78h.01c-2.98,3-5.14,6.25-5.87,9.91-1.79,1.84-3.75,4.43-5.74,7.17-.55,2.75.88,2.34,3.52,0,1.31-.5,1.97-1.8,2.28-3.52,1.31-.7,2.55-.75,3.59-.78,1.17.41,1.81,1.01,2.22,1.7-.06,1.63-.38,2.9-1.04,3.65-1.09.87-2.13,1.74-2.48,2.48-1.54.63-1.95,1.61-2.28,2.61-.61,1.25.32,1.37,2.41.65l1.7-1.04c.66,1.96.73,3.7.13,5.22h-1.96c-.98-3.9-2.64-1.32-4.17,0-4.96,4.63-8.81,9.38-10.7,14.35-.52.65-.61,1.45,0,2.48-.23,1.09-.69,1.73-1.83,1.04-.58-1.91-1.32-.74-2.09.78-2.19-1.47-3.98-.78-5.61.78-1.77.52-3.73.7-5.87.52.46-1.77-.11-2.95-1.96-3.39-1.93-7.89-8.33-13.32-13.96-19.17-1.35.5-2.15-.02-2.48-1.43-.8-5.81-2.57-13.27-4.57-21.13.85-5.96.12-11.03-2.09-15.26.49-6.08.59-11.66-.91-15.26,1.05-6.55.23-14.68-.91-23.09.9-3.1.22-3.73-2.61-1.04.07-2.44-.67-3.86-1.96-4.57,1.48-2.71.84-4.09,0-5.35.12-2.09.45-3.69,1.43-3.65,2.11-1.22,2.37-2.44,0-3.65.26-1.68-.42-2.5-1.43-3,1.04-.41,1.21-1.62.91-3.26,1.61.06,2.46-.74,2.48-2.48,2.05-18.78,1.26-25.27-.26-28.57-.62.49-1.23.51-1.83,0-.19-2.06-.6-3.79-1.3-5.09.56-2.49,1.31-4.13,2.35-4.43,1.1-.83,1.31-2.01.39-3.65.32-1.89.91-3.75,1.7-5.61,2.06-1.24,3.06-3.23,3.26-5.79,2.33-1.31,1.98-3.02,1.3-4.78.75-1.88,1.38-3.71,1.04-5.09,1.91-.41,3.42-1.21,4.04-2.87,2.55-3.13.96-2.94-1.3-2.22-.9.6-1.57,1.42-1.96,2.48-1.9-.46-3.7.55-5.48,1.83-2.26-1.8-1.54-3.79.39-5.87,2.91-1.9,5.32-3.82,5.61-5.87,1.56-1.56,3.2-2.47,4.96-2.61,1.71-.44,2.08.65,2.48,1.7.73,1.61,1.79,2.71,3.26,3.13,3.73.13,4.79-1.45,4.7-3.78.44-2.7,2.5-3.83,4.7-4.83.45-2.13,1.47-3.68,3.78-3.91-.48,1.94-.03,3.16,1.57,3.52,1.67,3.07,3.22,4.34,4.57,2.61,1.91,1.34,3.05,2.61,1.17,3.65,4.83,6.04,11.91,10.71,19.83,14.87.41,5.19,1.64,11.1,3.13,17.22,1.33.66,2.14,1.4,1.57,2.35Z"/>
  <path class="cls-1" d="M726.51,331.43c-1.99.87-3.03,2.55-3.39,4.83-2.13-.38-3.38,2.39-4.7,4.96-2.1-.61-2.94.69-3.39,2.61-.13,1.56.52,1.91,1.96,1.04,1.31-.89,2.32-1.88,3-3l4.43-4.7c.79-1.42,1.87-2.9,3.26-4.43,1.59-2.17,1.48-2.86-1.17-1.3h0Z"/>
  <path class="cls-1" d="M729.51,416.22c.28-2.46-.72-2.27-2.35-.78l-1.96,4.17c-.64.93-.62,1.66,0,2.22.73.51,1.46.13,2.15-2.61,1.11-.79,1.87-1.77,2.15-3h0Z"/>
  <path class="cls-1" d="M720.25,427.56c.14-.87-.3-1.37-1.43-1.43-.86.14-1.18.71-1.3,1.43.25.7.68,1.17,1.37,1.3.57-.13,1.01-.6,1.37-1.3h-.01Z"/>
  <path class="cls-1" d="M572.07,413.74c-1.54-.03-2.26.78-2.35,2.22-.87.14-1.63-.07-2.09-1.11-.73-1.39-1.42-.95-2.09,1.11-.37,1.84-1.23,3.2-2.74,3.91-1.57.65-2.52,1.63-2.48,3.13-1.12.67-1.39,1.46-1.04,2.35.81,1.03,1.83.93,3,0,.73-.03,1.47-.24,2.22-.91.51-.69,1.28-1.19,2.61-1.3.53-.01,1.29.05,2.09.13,1.59-1.71.26-2.05-1.17-2.35,2.09-1.14,3.84-2.35,4.04-3.91.36-.99,1.25-1.76,1.57-2.48.87-1.67.64-2.23-1.57-.78h0Z"/>
  <path class="cls-1" d="M626.46,428.87c-2.19,4.17-6.58,5.65-11.48,6.52-1.19.53-2.3,1.08-3.13,1.7-.56,1.75-1.53,1.92-2.61,1.7-.94,1.63-.79,2.74,3,2.09,1.41-.93,2.78-1.62,4.04-1.57,5.34-.82,8.62-4.14,12.13-7.17,2.09.62,3.8.49,4.83-.91,2.45-.74,2.27-1.53,1.04-2.35-1.5-1.97-3-2.49-4.5-1.37-2.12-.46-3.17.06-3.33,1.37h.01Z"/>
  <path class="cls-1" d="M720.25,268.43c1.98,2.11,1.92,2.95-.65,2.22l-2.87-2.22c-1.62-2.04-.69-2.43,1.76-1.83l1.76,1.83Z"/>
  <path class="cls-1" d="M714.77,264.26c-.77-.56-1.46-.83-1.83,0-.42.47-.28,1.13,0,1.83,1.07.74,1.82.65,2.35,0,.16-.94-.14-1.43-.52-1.83h0Z"/>
  <path class="cls-1" d="M784.81,235.95c-1.45-.99-2.93-1.85-4.57-2.22-4.6-2.45-8.9-5-12.26-7.83-1.83-.66-3.6-1.75-5.35-3-3.57-2.57-3.22-3.04,1.04-1.43l7.57,3.91c9.9,4.37,12.05,7.27,16.3,10.57,1.19,2.05.89,2.65-2.74,0h.01Z"/>
  <path class="cls-1" d="M662.59,76.56c-.98-4.48-1.83-5.15-2.35,2.87-1.14,5.06-1.89,9.89-1.43,13.96-.81,4.4.09,3.82,1.89.65.8-3.67,1.38-7.35.98-11.09,1.24-.89,1.19-3.49.91-6.39h0Z"/>
  <path class="cls-1" d="M725.98,55.04c-3.61-1.61-3.79-.63-2.22,1.7,1.36.52,2.68,1.13,3.91,1.96,1.36,1,2.86,1.61,4.57,1.57,3.17.55,2.57-.22,0-1.7-.93-1.13-2.35-1.74-4.24-1.83l-2.02-1.7Z"/>
  <path class="cls-1" d="M856.16,25.56c1-1.44.96-3.76-2.09-1.04-.88.72-1.32,1.79-1.57,3-.51,1.83-.82,3.38,1.83.78.65-.61,1.83-2.74,1.83-2.74Z"/>
  <path class="cls-1" d="M851.2,33.13c1.01-2.69.67-3.39-1.57-1.3-1.3.32-2.25,2.68-3.26,4.7.21,1.25.84,1.01,1.7,0,1-.7,2.03-1.67,3.13-3.39h0Z"/>
  <path class="cls-1" d="M812.59,92.74c-.21-1.12-.76-1.39-1.57-1.04-.82.52-1.04,1.19-.78,1.96.13.41.41.68,1.17.52.65-.49,1.15-.98,1.17-1.43h.01Z"/>
  <path class="cls-1" d="M802.94,107.22c-.24-1.39-.88-1.55-1.7-1.17-.46.34-.84.77-.65,1.96.26.68.58,1.19,1.17.91.82,0,1.16-.64,1.17-1.7h.01Z"/>
  <path class="cls-1" d="M509.72,467.08c-3.48,1.13-2.58.01-1.04-1.43,3.76-4.21,7.5-8.42,16.04-13.04,8.12-6.37,15.75-12.55,20.22-17.48,1.2-1.95,2.51-2.48,4.04,0,2.01.07,3.45-.19,4.04-.95.9-1.19,2.54-.86,4.43,0,1.79-1.2,2.57-3.23,2.61-5.84,2,.92,3.39-.62,4.57-3,3.12.37,6.7-.91,9-3.39.76-.27,1.65-.21,2.61,0-1.4-2.08.3-2.74,4.17-2.41-.9-2.42-2.89-4.69,6-8.41.82-2.88,2.71-2.99,5.09-1.83.84-1.08,1.99-1.78,3.26-2.35.16-2.57,1.52-4.23,3.91-5.09,2.43-2.95,4.36-9.04,8.22-3.13l3.65-1.43c3.85-3.53,7.69-6.97,11.22-7.17,1.84-2.27,4.45-3.65,8.02-3.91,1.92-.25,2.21-2,2.02-4.17,1.16-1.86,2.69-3.2,4.57-4.04-1.78-1.15-1.4-3.07-.39-5.22-.84.37-1.72-.04-2.61-.52-.59-.93-.87-1.95-.65-3.13.61-1.26,1.18-1.86,1.57.26,1.14,1.14,2.1,1.16,2.54-1.96.37-.92.42-1.95,0-3.13-.54-.77-1.1-1.4-2.05.1-2.32.98-2.31.04-1.37-1.66.52-1.11,1.26-1.87,2.54-1.76,1.42-.24,3.14-.07,4.99.29.18-1.36.75-1.95,1.86-1.47-.19-1-.5-1.79-.88-2.45-.13-4.19.73-10.76,1.66-17.51.35-1.14,1.23-1.73,3.03-1.37-.79-.3-.98-.86-.59-1.66-.86-.71-.58-1.69,0-2.74-.07-2.28-.41-3.71-.88-4.7-.47-2.11-.68-3.91,2.05-1.96,1.44.33,1.35-.79.39-2.74-1.71-.94-1.59-3.15-.88-5.77-.27-2.56-.46-5.05.1-6.85.42-2.35-.18-4.28-.88-6.16-.31-3.44-.51-6.73.59-8.32-.74-1.65-1.31-4.59-1.86-7.63.25-2.93-.53-7-1.57-11.35-.89-2.53-1.57-5.58-2.15-8.9-.58-.96-.99-2.45-1.37-4.01-.32-3.65,1-2.36,2.64-.1.86,2.14,1.18,4.2.78,6.16,1.37,1.09,1.84,3.23,2.05,5.67,1.75,2.6,2.59,6.31,2.74,10.86,2.12,4.13,4.08,8.22,4.4,11.84,3.05,3.07,3.75,9.11,4.21,15.46,1.94,7.27,3.91,14.4,6.65,17.51,3.43,3.54,5.98,7.54,6.85,12.42,2,.99,2.8,2.93,2.84,5.48,2.6,1.97,4.94,4.37,6.75,7.63,2.92,3.62,5.86,7.24,6.26,10.37.28,1.36.18,2.57-.68,3.52-.77,1.54-1.61,2.49-2.54,2.64-.72,1.42-.11,1.9,1.57,1.66l1.57-1.57c.72-.96,1.8-.74,3.03,0,.01-1.21.59-1.81,1.86-1.66.31-.55,1.3-1.06,2.54-1.57,3.36-.13,6.78-.13,10.27,0,3.81-2.16,7.58-4.08,11.25-5.58,1.67-.75,2.76-2.19,3.62-3.91.17-1.4.62-2.63,3.13-2.64-.02-1.32.5-2.39,1.96-3.03l1.76-1.96c-.8-2.57-.96-4.92,1.96-6.16,1.03-2.77,2.23-5.37,3.82-7.53-.12-1.86.28-3.52,1.47-4.89l-.1-1.57c-.04-1.68.77-2.79,2.45-3.33.45-.76,1.13-1.12,2.15-.88.54-.88.63-1.6-.68-1.86-.62.72-1.32.57-2.05.2-1.66-1.03-2.37-2.14.2-3.52,1.05-1.86,2.33-3.44,4.5-3.91.71-1.21,1.91-2.3,4.4-2.74l1.96-24.16c-.3-5.45-.46-10.5-.29-14.58-8.64-3.56-15.35-8.19-18.49-14.8-1.89-1.41-3.59-2.99-4.99-4.86-1.88-.19-3.43-1.04-4.63-2.54-1.94-2.26-2.51-3.57,1.3-1.86-.65-2.03-1.48-3.27-2.74-2.64-.48,1-1.07,1.02-1.76.2-1.09,1.76-2.13,1.66-3.13-.1-1.03.98-1.38,2.08-.88,3.33,1.64.76,1.89,1.84.78,3.23,3.28,3.8,2.3,3.54-.98,1.27-1.79-.22-3.7-1.24-5.67-2.74-1.86-.69-2.73-1.87-3.03-3.33-1.46-.04-1.13-1.2-.2-2.74-1.25,1.39-1.95,1.19-2.05-.68-.73,2.44-1.82,2.11-3.13.1-2.41-3.25-4.86-6.17-7.53-7.43-1.59-.58-3.19-2.02-4.79-3.91l-2.35-2.45c-6.6-6.71-13.45-13.57-15.55-17.9-3.9-2.77-6.2-6.92-8.61-10.96-3.16-3.29-5.96-6.78-8.22-10.57-.47-1.68-.61-3.24.29-4.4l.2-1.86c-.33-3,.14-5.19,2.25-5.67.47-.67.3-1.35-.39-2.05-.48.93-1.18,1.42-2.15,1.37-.93-1.13-.87-2.05.29-2.74.93-.59,1.63-1.89.88-7.73-.58-3.4-.25-5.39,1.66-4.94l-.29-40.45c.27-3.64,1.36-6.41,4.7-6.75.34-2.16.74-4.21,1.96-4.79.15-.94-.32-2.02-.98-3.13-.52-2.62-.22-5.27.49-7.92,1.28-4.11,2-5.11,1.57.2.1,1.96,1.01,2.42,3.03.78.75-1.02,1.62-1.25,2.54-1.08,1.87-5.95,3.76-13.58,5.58-14.87,1.32-.01,2.61-.05,3.13-.78-.17-1.07-.67-1.3-1.37-.98-1.39.28-1.54-.53-.98-1.96-.08-2.22.21-4.19,1.96-5.18.35-1.45.81-2.77,2.45-2.74,1.19-.12,1.7-1.25,1.86-2.93,1.77-2.11,2.86-2.32,2.84.59,1.09.87,2.2,1,3.33.2,1.36,0,1.97.67,1.27,2.54,1.23-.04,1.97-.55,1.86-1.86-1.46-1.48-.68-2.9.68-4.3,2.18-2.77,4.44-5.09,7.14-4.7-.34-2.64.56-4.52,3.42-5.18,2.79-1.17,5.55-2.22,7.83-1.47,1.39.11,2.59.52,2.74,2.64.39.74.65,1.55.78,2.45,1.32-.02,1.98-.58,1.27-2.25-.79-2.73.02-3.65,3.13-1.96,2.11-.14,3.89.05,4.4,1.47,2.16.07,3.49-.37,3.91-1.37.3-2.45,2.4-1.48,5.77,1.96,4.78,2.26,10.97,3.08,19.57,1.47,4.4.74,12-.16,34.04-8.51,4.52-2.69,9.08-4.38,13.7-4.63,1.97-1.01,2.21-.53.78,1.4-.92,1.58-3.11,2.76-5.67,3.82-2.52.58-4.57,1.64-4.3,4.99,1.84,0,3.28.84,4.21,2.84,1.45.17,2.66.16,3.33-.29l5.09-4.4c2.09-1.67,3.22-1.29,3.03,1.86-.53,1.68-.54,3.24.78,4.5,1.28.33,2.53,1,3.72,2.25,1.44.29,2.62.95,3.62,1.86.74.26,1.3.74,1.57,1.57,1.72.64,2.53.25,1.92-1.76-.54-.72-1.84-1.17-3.29-1.57-2.14-1.34-3.97-3.15-5.58-5.28-.58-.89-.6-1.96.29-3.33.06-1.12-.6-1.42-1.57-1.37-.36-1.65-.18-3.16,2.54-4.01,1.95-1.97,4.51-3.24,7.6-3.91,3.27-.82,5.73-2.14,7.47-3.91.24-2.55.4-5.15,4.7-5.28,2.05.5,3.86.37,5.48-.29,2.71-2.48,5.41-4.88,8.02-5.38l8.12-6.65c1.63-1.01,1.96-.72.98.88l-3.13,4.79c-1.4,1.64-2.46,3.33-3.03,5.09-.98,1.15-1.77,2.56-2.45,4.11-1.59.75-2.44,2.01-2.93,3.52-3.73,2.89-6.58,6.21-7.24,10.57.43,1.05.45,2.26.1,3.62-2.13,4.96-4.83,9.89-9.1,14.77-1.81.32-2.93,1.1-3.03,2.54,1.49,1.24.42,1.83-.59,2.45-1.72,1.15-3.24,2.82-4.53,5.09-.37.71-1.31,1.57-2.46,2.49.03,1.26-.69,1.39-1.61,1.22.02.81.08,1.57,1.08,1.37,1.69.33,1.52.88.2,1.57-2.12.79-4.48,4.16-6.85,7.53-.44.43-.92.69-1.57.1-1.19-.25-1.03.67-1.03,1.47.55,1.72.12,2.64-1.66,2.45-.06,1.46.35,2.36,1.76,2.01,2.52-.81,2.21.46,1.08,2.35-2.74,2.05-4.57,4.13-5.09,6.26-.39,1.21-1.45,2.72-2.98,4.45,1.68.48,2.76,1.55,3.13,3.33,1.51.73-1.23,7.4-2.74,6.6-.14-.07,1.03,8.85,1.03,8.85.78,5.6.74,11.98.24,18.78.27,5.76-.08,10.81-1.37,14.77.33,5.05.18,10.25-.39,15.55.67,3.94.38,9.31-.1,14.97-.87,5.93-1.62,5.06-2.25-2.05-.69-1.51-1.07-3.67-1.37-5.97-1.25-3.47-2.71-6.83-4.6-9.98-.89-5.76-1.8-11.49-3.62-14.09-.1-2.61-1.67-6.84-3.33-11.15-1.15-4.28-1.8-8.58-1.86-12.91-.17-1.19-.84-1.85-1.66-2.35-1.31-2.12-2.44-4.99-3.52-8.12.29-1.4-.26-2.15-1.66-2.25-.6,1.95-1.64,1.26-2.93-.98-1.05-1.14-1.81-2.46-2.35-3.91-.31-.66-.36-1.27.29-1.76.65-.86.26-1.4-.68-1.76-.86.12-1.34-.7-1.66-1.96-1.41.15-2.13-.64-2.05-2.54-.17-4.39-1-7.07-2.45-8.12-2.47-1.8-5.37-3.41-9.78-4.4-.92.6-1.37,1.49-1.57,2.54-.07,1.07-.7,1.69-3.03.88-.13-.95-1-1.42-2.35-1.57-1.22-.09-1.76-.55-1.27-1.57-.16-1.02-.71-2.12-1.57-3.29-1.63-.75-3.26-1.85-4.89-3.26-2.95-.33-6.03-.17-9.2.39-.32,1.52-.23,2.94.39,4.21l4.3,1.76c1.32.78,2.87,1.53.68,2.84-2.74,1.36-5.75,1.35-9.1-.29-.76,1.35-2.31,1.89-4.7,1.57-4.44,4.9-8.34,10.04-11.64,15.46-2.12,4.11-4.44,7.9-6.95,11.35.33,13.45.66,26.9-1.08,32.97.38,1.3,1.21,1.9,2.45,1.86,3.98,2.44,8.87,5.38,10.76,10.08-.46.52-.76,1.12-.78,1.86.28.79.82,1.35,1.66,1.66.78-.13,1.57.13,2.35.78,1.42,1.14,2.83,2.28,2.64,3.52.11.76.44,1.41,1.37,1.76.65-.67,1.37-.96,2.25-.39,2.33.82,3.85,2.57,4.79,4.99,1.75.42,2.81,1.48,3.33,3.03,5.47,6.18,12.18,11.97,19.96,17.41,4.06,1.26,7.52,3.42,9.68,7.53.72,1.27.76,2.69.29,4.21,2.32.98,4.48,2.19,6.36,3.82.92-.82,2.35-.46,4.4,1.37,3.71,1.75,7.07,3.67,9.39,6.07,3.52.6,6.59,1.45,7.24,3.72,2.71.11,5.19,1.38,7.53,3.33,2.5.51,4.58,1.89,6.46,3.72.85,5.57.82,11.6.1,18-.31.64-.54,1.31-.29,2.15.84.04.92.83.78,1.86.32,2.96-.12,4.95-1.17,6.16-.25.73-.22,1.37.2,1.86.94,1.59.99,5.02.88,8.8.03,2.78-.61,5.51-2.74,8.12.2,1.83-.83,3.34-2.05,4.79-.1,3.12-.98,5.89-3.72,7.83-.34,1.67-1.09,2.83-2.05,3.72-1.15,3.98-3.29,8.28-5.87,12.72-1.04,1.78-2.01,1.73-2.93.68-1.05.29-1.72-.49-2.15-1.96-.21-1.42-.75-2.26-1.66-2.45-.05,1.59-.62,1.91-1.76.78-.34-.78-1.02-1.22-2.25-1.08-.61.07-.98.38-1.27.78,1.32.6,2.52,1.28,2.84,2.45,1.19.41.96,1.18.68,1.96-.59,1.39-.47,3,.1,4.76.88.27,1.68.61.98,2.28-.62.88-.65,1.96-.1,3.23,1.03,1.99.76,3.65-.39,5.09.28,2.33.17,4.73-.68,7.24-1.36,1.5-2.73,3.88-4.11,6.55-.5,2.46-1.82,4.9-3.62,7.34-1.36,2.72-2.13,2.59-2.54.78-.06-.62-.33-.9-.88-.78-.61,2.08-1.01,4.03-1.08,5.77-1.35,1.28-2.32,2.61-2.84,4.01-.72,1.48-.28,2.47,1.37,2.93,1-.04,1.01.85.68,2.05-1.68,5.89-5.11,10.26-10.27,13.11-1.16,2.87-1.95,2.8-2.45.49l-1.96-.29-1.96.68c-.84.33-1.64.87-2.35,1.76-1.47,1.75-3.48,3.2-5.77,4.5-1.42,1.86-3.34,3.39-5.48,4.79l-1.63,3.72-2.15,2.93c-.9,2.74-2.44,4.81-4.96,5.87l-1.37,1.86-2.61,2.05c.44,1.78-.92,1.5-2.15,1.37-.72.45-1.72.34-2.84,0-1.82,2.07-3.58,3.9-3.62-.59-1.28-.53-2.01-1.49-2.35-2.74-.05-1.1-.97-2.18-3.33-3.23-1.39,1.11-3.29.6-5.77-1.76-1.46.23-2.42-.65-3.13-2.05-2.12,1-4.05.75-5.77-.88-.11,1.22-.6,2.04-1.57,2.38-.38.59-.72,1.22-.78,2.12,1.05-.06,1.39.58,1.27,1.66,1.57-.08,2.47.23,1.76,1.47-.46,1.41-1.79.94-3.33,0-2.13.26-4.39.12-6.75-.39-1.54.49-2.85.21-3.91-.88-2.39-.53-4.26-1.84-5.58-3.98-.8.27-1.67.3-2.64,0-1.69-.15-3.02.4-4.21,1.24-1.49.9-2.15,2.19-1.66,4.01,1.23-.68,2.34-.8,3.23.1,1.53,1.65,1.94,2.8.1,2.93-.57.36-1.48.2-2.54-.2-.44.07-1.01.06-1.66,0h-2.45c-.69.12-1.35.14-1.96,0-.85.56-1.77.7-2.84.1-.47.76-1.41.85-2.54.68-2.3,1.45-5.1,2.03-8.61,1.37l-2.05-1.37c-.7.91-1.42.67-2.15-.49-.47-.42-.74-.9-.39-1.57-.23-1.1.53-1.92,1.96-2.54,1.14-1.86.54-2.83-.78-3.42-.32-1.17-1.27-1.28-2.54-.85-.13,1.85-1.17,2.24-3.13,1.14-1.48.19-2.91.2-4.3,0-1.63.95-3.47,1.75-5.48,2.45-1.43-.21-2.66-.76-3.42-2.15-1.21-.89-1.79-.65-1.17,1.66.7,1.25.73,2.23-1.17,2.45-.32.91-1.23,1.36-2.93,1.17-1.62,2.12-3.62,1.99-5.58,2.15-.46,1.49-1.51,2.36-3.42,2.35-.32,1.25-1.75,1.27-4.11.29-.68,1.13-1.24.82-1.76.1-.63,1.48-1.46,1.01-2.35-.1-.3.99-.94,1.49-2.05,1.27,1.52,1.32.74,2.4-.59,3.42-2.69,2.29-4.17,2.1-4.4-.65-2.11-.13-3.27.29-3.52,1.24-1.69,2.42-5.85,3.03-10.57,3.23-1.22.47-2.37.7-3.13-.39-.98.04-1.99.55-3.03,1.47-.72.82-1.98,1.57-4.6,2.15-.28.79-1.74,1.06-3.33,1.27-1.1.37-2.31.66-3.91.68-1.73,1.26-5.61,1.45-9.88,1.47-6.26,4.96-12.46,9.62-18.1,11.64-.9.77-2.11,1.05-3.42,1.17-2.17.93-5.57,2.75-9,4.6-1,1.79-2.31,3.17-4.11,3.91l-2.48.46-.08-.05Z"/>
</svg>